<svg xmlns="http://www.w3.org/2000/svg" viewBox="0 0 48 69"><path d="M36.498 34.626q0 .815-.628 1.442L6.647 65.291q-.627.627-1.442.627t-1.442-.627L.627 62.156Q0 61.529 0 60.713t.627-1.442l24.645-24.645L.627 9.98Q0 9.354 0 8.538t.627-1.442L3.763 3.96q.627-.627 1.442-.627t1.442.627L35.87 33.184q.628.627.628 1.442z" stroke="null"/><path stroke="null" d="M47.83 34.626q0 .902-.772 1.596l-36.03 32.336q-.772.694-1.778.694t-1.778-.694l-3.866-3.47q-.773-.694-.773-1.596t.773-1.596l30.385-27.27L3.606 7.356q-.773-.695-.773-1.597t.773-1.596L7.472.693Q8.245 0 9.25 0t1.779.694L47.058 33.03q.773.694.773 1.596z"/></svg>